<svg version="1.1" id="Layer_1" xmlns="http://www.w3.org/2000/svg" xmlns:xlink="http://www.w3.org/1999/xlink" x="0px" y="0px"
	 width="100%" viewBox="0 0 350 350" enable-background="new 0 0 350 350" xml:space="preserve">
<path fill="#FFFFFF" opacity="1.000000" stroke="none" 
	d="
M156.000000,351.000000 
	C104.000008,351.000000 52.500019,351.000000 1.000021,351.000000 
	C1.000014,234.333359 1.000014,117.666725 1.000007,1.000068 
	C117.666618,1.000045 234.333237,1.000045 350.999878,1.000023 
	C350.999939,117.666595 350.999939,234.333191 350.999969,350.999878 
	C286.166656,351.000000 221.333328,351.000000 156.000000,351.000000 
M80.010254,194.744232 
	C80.538383,195.039749 81.066513,195.335251 81.594643,195.630768 
	C81.283592,194.885330 80.972549,194.139893 80.260925,192.862808 
	C75.807991,189.567810 71.627968,185.789825 66.841469,183.085129 
	C58.595825,178.425735 49.922024,174.530762 41.531414,170.118149 
	C37.871273,168.193283 34.466862,165.782135 30.714369,163.447525 
	C29.019350,172.590561 32.613281,179.245499 40.673332,182.258392 
	C48.915936,185.339493 57.269753,188.123062 65.574890,191.036880 
	C65.814972,190.504608 66.055054,189.972321 66.295143,189.440048 
	C58.843906,185.769196 51.392670,182.098328 43.941437,178.427475 
	C44.121483,178.044037 44.301533,177.660614 44.481579,177.277176 
	C48.244282,178.635727 52.172005,179.660126 55.736340,181.420364 
	C63.892979,185.448486 71.872047,189.836166 80.010254,194.744232 
M248.213486,152.911057 
	C251.156815,151.958801 254.137939,151.105469 257.024048,150.003357 
	C258.108154,149.589386 259.846832,148.460648 259.758575,147.897308 
	C259.558044,146.617950 258.669800,144.851746 257.598541,144.413086 
	C254.153748,143.002472 250.567108,141.644241 246.911316,141.104126 
	C239.324280,139.983185 238.921402,140.448532 235.841583,148.306870 
	C234.339050,152.140671 231.309296,152.736252 228.261230,149.750824 
	C225.524612,147.070419 222.970200,144.188980 220.101730,141.661407 
	C214.431351,136.664856 209.040192,131.167709 202.740540,127.108177 
	C190.509552,119.226440 176.170822,117.555405 162.185760,117.267708 
	C142.849564,116.869919 123.435150,117.761284 104.128242,119.138199 
	C83.478539,120.610886 68.215752,132.165649 55.541225,147.757904 
	C54.098984,149.532150 51.655193,151.658676 49.793697,151.552612 
	C48.333469,151.469406 47.096848,148.155304 45.684879,146.335541 
	C44.281078,144.526306 42.670132,141.204498 41.344837,141.298309 
	C35.716896,141.696655 30.125996,142.970306 24.610136,144.293442 
	C23.548296,144.548157 22.323023,146.424042 22.242115,147.624100 
	C22.191507,148.374756 24.025013,149.702362 25.211851,150.013916 
	C33.240433,152.121475 41.279404,154.227814 49.396385,155.951340 
	C61.942719,158.615387 74.157265,161.897202 84.160515,170.570480 
	C87.129745,173.144943 90.228729,175.569748 93.268257,178.063126 
	C93.564812,177.765991 93.861366,177.468857 94.157928,177.171707 
	C90.237869,172.596039 86.317818,168.020370 81.788406,162.733429 
	C121.672012,162.733429 160.503159,162.733429 200.122696,162.733429 
	C195.556732,168.064636 191.669128,172.603775 187.781525,177.142914 
	C188.221146,177.545441 188.660782,177.947952 189.100403,178.350464 
	C190.930267,176.537888 192.538513,174.399353 194.632721,172.975586 
	C200.276321,169.138824 205.704468,164.370605 211.987518,162.222595 
	C223.490921,158.289886 235.547882,155.976364 248.213486,152.911057 
M302.912781,200.382309 
	C303.334625,201.079025 303.615875,201.937164 304.200806,202.446609 
	C308.465942,206.161316 307.214081,208.697998 302.651154,210.814194 
	C301.855408,211.183243 301.436371,212.364487 300.843323,213.170609 
	C305.297577,211.824463 308.678497,211.131882 310.681274,216.088654 
	C311.029968,216.951706 312.300568,217.449417 312.628845,218.312363 
	C314.085175,222.140579 316.558441,222.426224 319.462158,220.306488 
	C321.437347,222.886520 322.969757,225.246567 324.895508,227.223389 
	C325.642242,227.989899 327.636169,228.487961 328.413422,228.023361 
	C329.263702,227.515137 330.019257,225.499481 329.666260,224.584320 
	C328.676117,222.017426 327.292938,219.539612 325.708954,217.275620 
	C320.203156,209.406036 314.546631,201.641907 308.827942,193.671173 
	C311.789917,191.682419 314.561218,189.870377 317.273865,187.974396 
	C318.243896,187.296387 319.551605,186.544403 319.809692,185.585220 
	C320.007996,184.848312 318.973083,183.182251 318.175476,182.935699 
	C317.305725,182.666840 316.105225,183.707306 314.999756,183.913223 
	C312.513092,184.376434 309.491547,185.714203 307.609924,184.799316 
	C304.806580,183.436264 305.145203,182.739838 302.141266,184.316528 
	C294.974976,188.077988 289.597778,186.410904 286.078766,179.331360 
	C285.860077,178.891449 285.803253,178.296249 285.469757,177.999878 
	C282.202576,175.096375 283.663330,167.330353 277.294403,168.302765 
	C272.919952,168.970642 268.951508,172.403137 264.850189,174.687057 
	C263.693665,175.331085 262.708374,176.282486 261.113495,177.497467 
	C267.809235,184.764847 269.340546,195.027756 277.910736,199.163757 
	C276.083466,201.249329 274.048462,203.572006 271.523041,206.454422 
	C280.430267,212.978256 284.733612,203.718231 291.417419,201.158829 
	C293.063232,205.302322 294.713043,209.455826 296.308441,213.472382 
	C300.294891,210.740662 300.294891,210.740662 294.674896,197.832840 
	C297.958588,198.688278 300.164398,199.262924 302.912781,200.382309 
M103.000000,199.487900 
	C103.000000,202.580307 103.000000,205.672699 103.000000,208.761887 
	C108.002525,208.761887 112.278687,208.761887 116.701675,208.761887 
	C116.701675,207.134109 116.701675,205.746857 116.701675,204.270996 
	C113.994423,204.041504 111.562141,203.835327 109.129868,203.629135 
	C109.150574,203.206299 109.171288,202.783447 109.192001,202.360596 
	C111.372208,202.144150 113.552414,201.927704 116.100456,201.674744 
	C115.873489,199.751801 115.676613,198.083755 115.607033,197.494247 
	C112.507324,196.704071 110.416267,196.171021 108.325203,195.637970 
	C111.459442,192.690216 115.722084,196.394226 117.562317,191.387131 
	C119.600655,197.364868 121.579514,203.168152 123.587692,209.057434 
	C125.487389,208.948029 127.103333,208.854965 128.443985,208.777740 
	C130.494492,202.137527 132.431244,195.865707 134.465744,189.277359 
	C125.711571,187.898163 129.037140,196.308624 125.543251,198.588104 
	C124.519402,195.328720 123.550644,192.244736 122.529861,188.995117 
	C116.013977,188.995117 109.688477,188.995117 103.000000,188.995117 
	C103.000000,192.575623 103.000000,195.543930 103.000000,199.487900 
M227.410721,182.008484 
	C228.746033,181.653488 230.081329,181.298477 231.416641,180.943481 
	C231.492508,181.160355 231.568359,181.377228 231.644226,181.594116 
	C226.356033,184.240875 221.067841,186.887619 215.779648,189.534378 
	C216.009048,189.963562 216.238449,190.392746 216.467850,190.821930 
	C225.145645,187.814774 233.957382,185.138458 242.459290,181.696793 
	C249.384354,178.893463 253.071381,170.617508 251.068405,163.909027 
	C250.322250,164.174652 249.531937,164.340332 248.856705,164.713989 
	C240.879150,169.128601 232.896545,173.534927 224.959824,178.022232 
	C215.924118,183.130905 205.123047,185.651535 199.498840,195.941010 
	C207.197235,188.552734 217.242325,185.990265 227.410721,182.008484 
M95.208130,208.999893 
	C99.567833,209.228455 102.442963,207.489059 101.898041,202.810730 
	C101.542694,199.760056 100.331635,196.986969 101.600525,193.692535 
	C101.942551,192.804550 99.133118,189.640198 97.376328,189.236908 
	C94.142937,188.494659 90.617393,189.025055 87.238480,189.025055 
	C87.238480,196.008118 87.238480,202.255417 87.238480,209.000000 
	C89.743484,209.000000 92.018616,209.000000 95.208130,208.999893 
M142.845840,234.202225 
	C142.963257,231.709198 143.080688,229.216171 143.203430,226.610260 
	C147.088089,229.252060 146.512070,236.780228 153.722687,234.613876 
	C153.722687,227.831375 153.722687,221.100342 153.722687,214.333801 
	C151.719421,214.333801 149.997971,214.333801 148.000061,214.333801 
	C148.000061,215.970566 148.000046,217.280258 148.000046,218.589951 
	C148.000046,219.804916 148.000061,221.019897 148.000061,222.969666 
	C142.168716,214.000198 142.168716,214.000198 138.214478,214.704849 
	C138.214478,221.298553 138.214478,227.895065 138.214478,234.844788 
	C139.693680,234.844788 140.963272,234.844788 142.845840,234.202225 
M254.688141,234.627258 
	C253.555389,230.826355 251.529800,227.503983 254.624359,223.113174 
	C256.944855,219.820679 252.746796,214.508820 248.181839,214.060516 
	C245.600525,213.807007 242.973938,214.014771 240.312286,214.014771 
	C240.312286,221.319962 240.312286,228.050156 240.312286,235.075317 
	C242.057770,234.913132 243.460022,234.782837 244.721176,234.665649 
	C244.985199,232.547028 245.196442,230.851959 245.589691,227.696411 
	C248.103745,231.802353 248.820602,236.509705 254.688141,234.627258 
M152.657745,189.004211 
	C151.778214,189.673080 150.159424,190.316498 150.135391,191.014832 
	C149.931839,196.927521 150.019165,202.850235 150.019165,208.650574 
	C152.359436,208.650574 154.087280,208.650574 155.765472,208.650574 
	C155.765472,206.607834 155.765472,204.910034 155.765472,202.412567 
	C158.342651,205.873871 159.065140,211.318329 164.990021,208.298538 
	C164.056473,206.272034 163.115662,204.229767 162.174850,202.187500 
	C162.642471,202.197968 163.110107,202.208435 163.577728,202.218887 
	C163.790817,199.027939 164.593811,195.737610 164.077026,192.669586 
	C163.325134,188.205841 159.333420,189.009293 156.081253,189.000366 
	C155.251968,188.998093 154.422668,189.000366 152.657745,189.004211 
M208.000000,221.570267 
	C208.000000,219.132996 208.000000,216.695724 208.000000,213.924332 
	C205.968475,214.094849 204.568451,214.212357 202.847229,214.356827 
	C202.847229,216.936035 202.847229,219.159348 202.847229,221.583542 
	C198.600388,220.123062 199.648392,212.505051 193.236206,214.345413 
	C193.236206,221.064316 193.236206,227.804352 193.236206,234.711273 
	C194.861725,234.711273 196.243881,234.711273 197.987793,234.711273 
	C197.987793,231.898300 197.987793,229.345978 197.987793,226.635757 
	C201.670303,229.104523 201.439301,235.745041 208.000000,234.744522 
	C208.000000,230.481033 208.000000,226.512360 208.000000,221.570267 
M234.267609,214.000000 
	C231.323532,214.000000 228.379471,214.000000 225.309692,214.000000 
	C225.309692,221.233704 225.309692,227.937729 225.309692,234.657349 
	C230.014359,234.657349 234.403854,234.657349 239.033997,234.657349 
	C238.929718,232.565613 238.843781,230.841843 238.760101,229.163101 
	C235.510056,229.014877 232.845871,228.893387 230.181686,228.771881 
	C230.171661,228.283936 230.161621,227.796005 230.151596,227.308075 
	C232.613434,227.139343 235.075287,226.970612 237.722534,226.789185 
	C237.722534,225.167847 237.722534,223.782715 237.722534,222.242142 
	C235.033478,222.035965 232.594147,221.848938 230.154816,221.661911 
	C230.168213,221.200012 230.181595,220.738098 230.194977,220.276199 
	C232.685959,220.106735 235.176926,219.937271 237.629883,219.770401 
	C238.049637,217.813263 238.414810,216.110626 238.819901,214.221878 
	C237.471909,214.139740 236.326630,214.069931 234.267609,214.000000 
M60.999119,222.812943 
	C59.959965,217.133499 56.119049,213.495636 51.706444,214.011536 
	C47.363197,214.519333 42.637333,220.554810 43.011112,225.116486 
	C43.515919,231.277206 47.018108,234.964844 52.397251,234.999634 
	C57.839218,235.034821 60.964962,230.913620 60.999119,222.812943 
M127.502075,234.999756 
	C130.040451,233.446350 133.133286,232.375412 134.996353,230.234375 
	C138.382706,226.342758 136.942490,221.863007 134.415222,218.086365 
	C132.429321,215.118698 129.444641,213.117538 125.512138,214.247940 
	C121.125397,215.508942 118.821228,219.689011 119.000420,225.682297 
	C119.143692,230.474289 121.937401,233.856598 127.502075,234.999756 
M186.634125,221.999741 
	C185.470840,221.825455 184.307571,221.651169 183.144287,221.476868 
	C183.151779,221.077042 183.159286,220.677216 183.166794,220.277390 
	C185.649750,220.113037 188.132721,219.948685 190.670059,219.780731 
	C190.670059,217.748688 190.670059,216.032700 190.670059,214.395889 
	C186.284225,214.395889 182.235382,214.395889 178.283859,214.395889 
	C178.283859,221.394547 178.283859,227.993408 178.283859,234.669403 
	C182.636887,234.669403 186.700211,234.669403 191.031204,234.669403 
	C190.929214,232.592834 190.844254,230.862991 190.761932,229.187195 
	C187.851868,229.010605 185.513824,228.868729 183.175766,228.726852 
	C183.170547,228.251740 183.165329,227.776611 183.160095,227.301498 
	C185.629990,227.136368 188.099869,226.971252 190.594391,226.804474 
	C191.394485,223.773590 191.464279,221.542496 186.634125,221.999741 
M142.755447,194.002106 
	C144.704254,194.002106 146.653061,194.002106 148.674820,194.002106 
	C148.674820,192.091995 148.674820,190.712189 148.674820,189.380966 
	C143.974197,189.380966 139.593750,189.380966 135.258698,189.380966 
	C135.258698,196.023560 135.258698,202.282227 135.258698,208.705795 
	C139.912994,208.705795 144.305099,208.705795 149.027481,208.705795 
	C148.891479,206.997482 148.780930,205.608841 148.675751,204.287735 
	C145.561890,204.019913 142.849609,203.786621 140.137329,203.553329 
	C140.164215,203.146713 140.191101,202.740097 140.217987,202.333481 
	C142.759567,202.110260 145.301132,201.887024 148.040878,201.646393 
	C147.929703,199.583954 147.837875,197.880325 147.758957,196.416321 
	C145.445145,196.639572 143.673187,196.926346 141.902786,196.917130 
	C141.301514,196.913986 140.704117,196.164291 140.104950,195.755737 
	C140.691452,195.175644 141.277954,194.595551 142.755447,194.002106 
M103.438980,229.838562 
	C101.939392,229.243973 100.439804,228.649368 98.940216,228.054764 
	C99.328812,228.511261 99.717407,228.967743 100.106003,229.424225 
	C98.615974,229.854645 97.125954,230.285065 95.581413,230.731232 
	C101.361778,235.797714 106.701965,236.681656 109.431862,232.590012 
	C114.623772,224.808273 106.646362,223.281326 102.820396,219.429291 
	C104.536430,219.972748 106.252472,220.516190 108.350761,221.180695 
	C109.033134,219.672379 109.662376,218.281509 110.362450,216.734055 
	C108.766617,215.962891 107.615227,215.352081 106.421791,214.839142 
	C100.957405,212.490570 95.925591,216.041824 97.239624,221.835846 
	C97.703011,223.879074 100.957100,225.212418 102.715805,227.078384 
	C103.380226,227.783325 107.654457,227.037018 103.438980,229.838562 
M40.521709,233.121643 
	C41.254147,231.914566 41.986584,230.707489 42.719032,229.500412 
	C41.250965,229.048584 39.806080,228.484802 38.308662,228.174728 
	C36.629196,227.826965 33.492561,227.897507 33.433758,227.458618 
	C33.139462,225.262192 33.292816,222.815994 34.109753,220.788361 
	C34.325302,220.253372 37.459011,220.894119 40.429066,221.061127 
	C40.640545,220.886765 41.945946,219.810471 43.213177,218.765656 
	C37.531548,210.448746 29.759218,213.916733 27.555283,220.996918 
	C26.069456,225.770157 26.770388,230.582703 31.083063,233.229568 
	C33.281212,234.578690 36.924133,233.573776 40.521709,233.121643 
M165.741760,234.182007 
	C170.664978,236.630127 173.983505,234.124298 177.486649,230.394958 
	C175.915253,229.144180 174.585999,228.086136 173.256744,227.028091 
	C171.275070,228.224945 168.265137,228.735550 168.021698,228.131393 
	C167.218201,226.137344 166.745041,223.459488 167.516754,221.619400 
	C167.889023,220.731720 171.327148,221.129807 174.605728,220.835358 
	C174.805206,220.613617 175.978470,219.309494 177.183945,217.969559 
	C169.377396,212.481750 164.404587,213.226654 161.944687,219.866577 
	C159.965668,225.208481 160.532898,229.884521 165.741760,234.182007 
M64.536415,214.005661 
	C63.706661,214.541199 62.170086,215.057907 62.155235,215.615143 
	C61.985363,221.989838 62.047153,228.370697 62.047153,234.625198 
	C66.754814,234.625198 70.788925,234.625198 74.749763,234.625198 
	C74.749763,232.643707 74.749763,231.042480 74.749763,229.179596 
	C72.468689,229.047638 70.410583,228.928589 67.998016,228.789017 
	C67.998016,224.640244 68.184631,220.851517 67.881531,217.102371 
	C67.793373,216.011902 66.305458,215.034622 64.536415,214.005661 
M88.850807,229.803635 
	C86.360374,229.371536 83.869942,228.939438 81.695992,228.562241 
	C81.695992,223.729843 81.695992,219.022690 81.695992,213.995544 
	C79.660294,214.084702 77.949890,214.159607 76.383583,214.228195 
	C76.383583,221.427155 76.383583,228.116898 76.383583,234.761520 
	C80.693420,234.761520 84.617622,234.761520 88.975243,234.761520 
	C88.975243,233.250427 88.975243,231.973099 88.850807,229.803635 
M220.289307,214.000336 
	C216.673462,214.000336 213.057632,214.000336 209.289871,214.000336 
	C209.289871,216.205582 209.289871,217.926483 209.289871,219.676529 
	C210.961884,219.924332 212.359482,220.131439 214.060333,220.383514 
	C214.060333,225.279388 214.060333,229.880463 214.060333,234.725250 
	C215.797394,234.725250 217.175598,234.725250 219.061752,234.725250 
	C219.061752,229.777222 219.061752,225.040100 219.061752,220.376205 
	C220.972580,220.067673 222.379745,219.840454 225.597931,219.320831 
	C223.666840,216.971924 222.446304,215.487305 220.289307,214.000336 
M184.177094,200.617950 
	C184.505966,203.272308 184.834854,205.926666 185.172134,208.648834 
	C186.298080,208.648834 188.019913,208.648834 188.248581,208.648834 
	C190.892548,201.430283 193.239410,195.022888 195.563339,188.678101 
	C191.351227,188.465622 188.109177,189.743073 187.589767,196.143936 
	C186.122711,192.984726 185.259872,191.126648 184.425751,189.330414 
	C182.683746,189.330414 180.963852,189.330414 178.706314,189.330414 
	C180.615814,193.147919 182.289642,196.494263 184.177094,200.617950 
M176.370010,203.003433 
	C174.967545,202.895523 173.565079,202.787598 171.857590,202.656219 
	C171.857590,197.949280 171.857590,193.696777 171.857590,189.294128 
	C169.801254,189.294128 168.094299,189.294128 166.309967,189.294128 
	C166.309967,195.938599 166.309967,202.292343 166.309967,208.674103 
	C170.666351,208.674103 174.707245,208.674103 179.866592,208.674103 
	C178.801056,206.348679 178.039383,204.686417 176.370010,203.003433 
M90.002533,232.208527 
	C89.936623,236.358658 92.566742,234.780502 94.666763,234.788040 
	C94.666763,227.657333 94.666763,220.928894 94.666763,213.890045 
	C92.915359,214.088745 91.529999,214.245911 90.000320,214.419449 
	C90.000320,220.307236 90.000320,225.785767 90.002533,232.208527 
M112.665733,234.803696 
	C114.050827,234.803696 115.435913,234.803696 116.728615,234.803696 
	C116.728615,227.560638 116.728615,220.961960 116.728615,214.041504 
	C115.057846,214.132004 113.676590,214.206802 112.119217,214.291153 
	C112.119217,221.129593 112.119217,227.593018 112.665733,234.803696 
z"/>
<path fill="#797979" opacity="1.000000" stroke="none" 
	d="
M247.793747,152.949341 
	C235.547882,155.976364 223.490921,158.289886 211.987518,162.222595 
	C205.704468,164.370605 200.276321,169.138824 194.632721,172.975586 
	C192.538513,174.399353 190.930267,176.537888 189.100403,178.350464 
	C188.660782,177.947952 188.221146,177.545441 187.781525,177.142914 
	C191.669128,172.603775 195.556732,168.064636 200.122696,162.733429 
	C160.503159,162.733429 121.672012,162.733429 81.788406,162.733429 
	C86.317818,168.020370 90.237869,172.596039 94.157928,177.171707 
	C93.861366,177.468857 93.564812,177.765991 93.268257,178.063126 
	C90.228729,175.569748 87.129745,173.144943 84.160515,170.570480 
	C74.157265,161.897202 61.942719,158.615387 49.396385,155.951340 
	C41.279404,154.227814 33.240433,152.121475 25.211851,150.013916 
	C24.025013,149.702362 22.191507,148.374756 22.242115,147.624100 
	C22.323023,146.424042 23.548296,144.548157 24.610136,144.293442 
	C30.125996,142.970306 35.716896,141.696655 41.344837,141.298309 
	C42.670132,141.204498 44.281078,144.526306 45.684879,146.335541 
	C47.096848,148.155304 48.333469,151.469406 49.793697,151.552612 
	C51.655193,151.658676 54.098984,149.532150 55.541225,147.757904 
	C68.215752,132.165649 83.478539,120.610886 104.128242,119.138199 
	C123.435150,117.761284 142.849564,116.869919 162.185760,117.267708 
	C176.170822,117.555405 190.509552,119.226440 202.740540,127.108177 
	C209.040192,131.167709 214.431351,136.664856 220.101730,141.661407 
	C222.970200,144.188980 225.524612,147.070419 228.261230,149.750824 
	C231.309296,152.736252 234.339050,152.140671 235.841583,148.306870 
	C238.921402,140.448532 239.324280,139.983185 246.911316,141.104126 
	C250.567108,141.644241 254.153748,143.002472 257.598541,144.413086 
	C258.669800,144.851746 259.558044,146.617950 259.758575,147.897308 
	C259.846832,148.460648 258.108154,149.589386 257.024048,150.003357 
	C254.137939,151.105469 251.156815,151.958801 247.793747,152.949341 
M164.842331,131.771194 
	C159.168839,139.434143 153.762543,147.235641 151.543030,156.722488 
	C154.442947,156.722488 157.041550,156.722488 158.662888,156.722488 
	C161.242477,148.153671 163.663376,140.111984 166.611786,131.819550 
	C166.656784,131.378616 166.701782,130.937698 166.746780,130.496765 
	C166.290802,130.780151 165.834824,131.063538 164.842331,131.771194 
M206.945572,134.431992 
	C198.777374,128.021164 188.913986,126.577454 179.101059,125.144516 
	C178.151474,125.005852 176.576050,126.381577 175.919556,127.442986 
	C170.356827,136.436874 170.785812,145.732300 175.121078,155.003632 
	C175.585129,155.996063 177.378403,156.814880 178.621704,156.919067 
	C184.688416,157.427597 190.786987,157.549789 196.856583,158.031784 
	C203.280960,158.541992 208.521393,155.867981 213.890854,152.803879 
	C218.274933,150.302109 217.626404,147.260315 215.544296,144.253952 
	C213.218948,140.896347 210.176437,138.035416 206.945572,134.431992 
z"/>
<path fill="#797979" opacity="1.000000" stroke="none" 
	d="
M302.641510,200.109955 
	C300.164398,199.262924 297.958588,198.688278 294.674896,197.832840 
	C300.294891,210.740662 300.294891,210.740662 296.308441,213.472382 
	C294.713043,209.455826 293.063232,205.302322 291.417419,201.158829 
	C284.733612,203.718231 280.430267,212.978256 271.523041,206.454422 
	C274.048462,203.572006 276.083466,201.249329 277.910736,199.163757 
	C269.340546,195.027756 267.809235,184.764847 261.113495,177.497467 
	C262.708374,176.282486 263.693665,175.331085 264.850189,174.687057 
	C268.951508,172.403137 272.919952,168.970642 277.294403,168.302765 
	C283.663330,167.330353 282.202576,175.096375 285.469757,177.999878 
	C285.803253,178.296249 285.860077,178.891449 286.078766,179.331360 
	C289.597778,186.410904 294.974976,188.077988 302.141266,184.316528 
	C305.145203,182.739838 304.806580,183.436264 307.609924,184.799316 
	C309.491547,185.714203 312.513092,184.376434 314.999756,183.913223 
	C316.105225,183.707306 317.305725,182.666840 318.175476,182.935699 
	C318.973083,183.182251 320.007996,184.848312 319.809692,185.585220 
	C319.551605,186.544403 318.243896,187.296387 317.273865,187.974396 
	C314.561218,189.870377 311.789917,191.682419 308.827942,193.671173 
	C314.546631,201.641907 320.203156,209.406036 325.708954,217.275620 
	C327.292938,219.539612 328.676117,222.017426 329.666260,224.584320 
	C330.019257,225.499481 329.263702,227.515137 328.413422,228.023361 
	C327.636169,228.487961 325.642242,227.989899 324.895508,227.223389 
	C322.969757,225.246567 321.437347,222.886520 319.462158,220.306488 
	C316.558441,222.426224 314.085175,222.140579 312.628845,218.312363 
	C312.300568,217.449417 311.029968,216.951706 310.681274,216.088654 
	C308.678497,211.131882 305.297577,211.824463 300.843323,213.170609 
	C301.436371,212.364487 301.855408,211.183243 302.651154,210.814194 
	C307.214081,208.697998 308.465942,206.161316 304.200806,202.446609 
	C303.615875,201.937164 303.334625,201.079025 302.641510,200.109955 
z"/>
<path fill="#797979" opacity="1.000000" stroke="none" 
	d="
M103.000000,199.000061 
	C103.000000,195.543930 103.000000,192.575623 103.000000,188.995117 
	C109.688477,188.995117 116.013977,188.995117 122.529861,188.995117 
	C123.550644,192.244736 124.519402,195.328720 125.543251,198.588104 
	C129.037140,196.308624 125.711571,187.898163 134.465744,189.277359 
	C132.431244,195.865707 130.494492,202.137527 128.443985,208.777740 
	C127.103333,208.854965 125.487389,208.948029 123.587692,209.057434 
	C121.579514,203.168152 119.600655,197.364868 117.562317,191.387131 
	C115.722084,196.394226 111.459442,192.690216 108.325203,195.637970 
	C110.416267,196.171021 112.507324,196.704071 115.607033,197.494247 
	C115.676613,198.083755 115.873489,199.751801 116.100456,201.674744 
	C113.552414,201.927704 111.372208,202.144150 109.192001,202.360596 
	C109.171288,202.783447 109.150574,203.206299 109.129868,203.629135 
	C111.562141,203.835327 113.994423,204.041504 116.701675,204.270996 
	C116.701675,205.746857 116.701675,207.134109 116.701675,208.761887 
	C112.278687,208.761887 108.002525,208.761887 103.000000,208.761887 
	C103.000000,205.672699 103.000000,202.580307 103.000000,199.000061 
z"/>
<path fill="#797979" opacity="1.000000" stroke="none" 
	d="
M227.026886,182.056976 
	C217.242325,185.990265 207.197235,188.552734 199.498840,195.941010 
	C205.123047,185.651535 215.924118,183.130905 224.959824,178.022232 
	C232.896545,173.534927 240.879150,169.128601 248.856705,164.713989 
	C249.531937,164.340332 250.322250,164.174652 251.068405,163.909027 
	C253.071381,170.617508 249.384354,178.893463 242.459290,181.696793 
	C233.957382,185.138458 225.145645,187.814774 216.467850,190.821930 
	C216.238449,190.392746 216.009048,189.963562 215.779648,189.534378 
	C221.067841,186.887619 226.356033,184.240875 231.644226,181.594116 
	C231.568359,181.377228 231.492508,181.160355 231.416641,180.943481 
	C230.081329,181.298477 228.746033,181.653488 227.026886,182.056976 
z"/>
<path fill="#797979" opacity="1.000000" stroke="none" 
	d="
M79.923233,194.077835 
	C71.872047,189.836166 63.892979,185.448486 55.736340,181.420364 
	C52.172005,179.660126 48.244282,178.635727 44.481579,177.277176 
	C44.301533,177.660614 44.121483,178.044037 43.941437,178.427475 
	C51.392670,182.098328 58.843906,185.769196 66.295143,189.440048 
	C66.055054,189.972321 65.814972,190.504608 65.574890,191.036880 
	C57.269753,188.123062 48.915936,185.339493 40.673332,182.258392 
	C32.613281,179.245499 29.019350,172.590561 30.714369,163.447525 
	C34.466862,165.782135 37.871273,168.193283 41.531414,170.118149 
	C49.922024,174.530762 58.595825,178.425735 66.841469,183.085129 
	C71.627968,185.789825 75.807991,189.567810 80.263763,193.285568 
	C80.152145,193.831497 80.037689,193.954666 79.923233,194.077835 
z"/>
<path fill="#797979" opacity="1.000000" stroke="none" 
	d="
M94.750938,208.999939 
	C92.018616,209.000000 89.743484,209.000000 87.238480,209.000000 
	C87.238480,202.255417 87.238480,196.008118 87.238480,189.025055 
	C90.617393,189.025055 94.142937,188.494659 97.376328,189.236908 
	C99.133118,189.640198 101.942551,192.804550 101.600525,193.692535 
	C100.331635,196.986969 101.542694,199.760056 101.898041,202.810730 
	C102.442963,207.489059 99.567833,209.228455 94.750938,208.999939 
z"/>
<path fill="#797979" opacity="1.000000" stroke="none" 
	d="
M142.539352,234.523499 
	C140.963272,234.844788 139.693680,234.844788 138.214478,234.844788 
	C138.214478,227.895065 138.214478,221.298553 138.214478,214.704849 
	C142.168716,214.000198 142.168716,214.000198 148.000061,222.969666 
	C148.000061,221.019897 148.000046,219.804916 148.000046,218.589951 
	C148.000046,217.280258 148.000061,215.970566 148.000061,214.333801 
	C149.997971,214.333801 151.719421,214.333801 153.722687,214.333801 
	C153.722687,221.100342 153.722687,227.831375 153.722687,234.613876 
	C146.512070,236.780228 147.088089,229.252060 143.203430,226.610260 
	C143.080688,229.216171 142.963257,231.709198 142.539352,234.523499 
z"/>
<path fill="#797979" opacity="1.000000" stroke="none" 
	d="
M254.322296,234.779846 
	C248.820602,236.509705 248.103745,231.802353 245.589691,227.696411 
	C245.196442,230.851959 244.985199,232.547028 244.721176,234.665649 
	C243.460022,234.782837 242.057770,234.913132 240.312286,235.075317 
	C240.312286,228.050156 240.312286,221.319962 240.312286,214.014771 
	C242.973938,214.014771 245.600525,213.807007 248.181839,214.060516 
	C252.746796,214.508820 256.944855,219.820679 254.624359,223.113174 
	C251.529800,227.503983 253.555389,230.826355 254.322296,234.779846 
z"/>
<path fill="#797979" opacity="1.000000" stroke="none" 
	d="
M153.125565,189.002380 
	C154.422668,189.000366 155.251968,188.998093 156.081253,189.000366 
	C159.333420,189.009293 163.325134,188.205841 164.077026,192.669586 
	C164.593811,195.737610 163.790817,199.027939 163.577728,202.218887 
	C163.110107,202.208435 162.642471,202.197968 162.174850,202.187500 
	C163.115662,204.229767 164.056473,206.272034 164.990021,208.298538 
	C159.065140,211.318329 158.342651,205.873871 155.765472,202.412567 
	C155.765472,204.910034 155.765472,206.607834 155.765472,208.650574 
	C154.087280,208.650574 152.359436,208.650574 150.019165,208.650574 
	C150.019165,202.850235 149.931839,196.927521 150.135391,191.014832 
	C150.159424,190.316498 151.778214,189.673080 153.125565,189.002380 
z"/>
<path fill="#797979" opacity="1.000000" stroke="none" 
	d="
M208.000000,222.056976 
	C208.000000,226.512360 208.000000,230.481033 208.000000,234.744522 
	C201.439301,235.745041 201.670303,229.104523 197.987793,226.635757 
	C197.987793,229.345978 197.987793,231.898300 197.987793,234.711273 
	C196.243881,234.711273 194.861725,234.711273 193.236206,234.711273 
	C193.236206,227.804352 193.236206,221.064316 193.236206,214.345413 
	C199.648392,212.505051 198.600388,220.123062 202.847229,221.583542 
	C202.847229,219.159348 202.847229,216.936035 202.847229,214.356827 
	C204.568451,214.212357 205.968475,214.094849 208.000000,213.924332 
	C208.000000,216.695724 208.000000,219.132996 208.000000,222.056976 
z"/>
<path fill="#797979" opacity="1.000000" stroke="none" 
	d="
M234.724472,214.000061 
	C236.326630,214.069931 237.471909,214.139740 238.819901,214.221878 
	C238.414810,216.110626 238.049637,217.813263 237.629883,219.770401 
	C235.176926,219.937271 232.685959,220.106735 230.194977,220.276199 
	C230.181595,220.738098 230.168213,221.200012 230.154816,221.661911 
	C232.594147,221.848938 235.033478,222.035965 237.722534,222.242142 
	C237.722534,223.782715 237.722534,225.167847 237.722534,226.789185 
	C235.075287,226.970612 232.613434,227.139343 230.151596,227.308075 
	C230.161621,227.796005 230.171661,228.283936 230.181686,228.771881 
	C232.845871,228.893387 235.510056,229.014877 238.760101,229.163101 
	C238.843781,230.841843 238.929718,232.565613 239.033997,234.657349 
	C234.403854,234.657349 230.014359,234.657349 225.309692,234.657349 
	C225.309692,227.937729 225.309692,221.233704 225.309692,214.000000 
	C228.379471,214.000000 231.323532,214.000000 234.724472,214.000061 
z"/>
<path fill="#797979" opacity="1.000000" stroke="none" 
	d="
M60.999504,223.235107 
	C60.964962,230.913620 57.839218,235.034821 52.397251,234.999634 
	C47.018108,234.964844 43.515919,231.277206 43.011112,225.116486 
	C42.637333,220.554810 47.363197,214.519333 51.706444,214.011536 
	C56.119049,213.495636 59.959965,217.133499 60.999504,223.235107 
M54.397549,228.037262 
	C54.920467,226.860443 56.063709,225.534485 55.824837,224.540802 
	C55.440624,222.942535 54.371437,221.285065 53.104149,220.248810 
	C52.681343,219.903076 50.040230,221.121964 49.690205,222.088211 
	C49.071148,223.797134 48.999023,226.010300 49.586658,227.704117 
	C49.832073,228.411514 52.350590,228.330322 54.397549,228.037262 
z"/>
<path fill="#797979" opacity="1.000000" stroke="none" 
	d="
M127.098923,234.999359 
	C121.937401,233.856598 119.143692,230.474289 119.000420,225.682297 
	C118.821228,219.689011 121.125397,215.508942 125.512138,214.247940 
	C129.444641,213.117538 132.429321,215.118698 134.415222,218.086365 
	C136.942490,221.863007 138.382706,226.342758 134.996353,230.234375 
	C133.133286,232.375412 130.040451,233.446350 127.098923,234.999359 
M130.985046,225.371826 
	C129.903076,223.599472 128.821121,221.827133 127.739143,220.054764 
	C126.504074,221.170578 124.268127,222.281662 124.262833,223.403290 
	C124.254379,225.194702 125.728119,226.993118 126.575188,228.788559 
	C128.022736,227.916840 129.470291,227.045135 130.985046,225.371826 
z"/>
<path fill="#797979" opacity="1.000000" stroke="none" 
	d="
M187.073746,222.000122 
	C191.464279,221.542496 191.394485,223.773590 190.594391,226.804474 
	C188.099869,226.971252 185.629990,227.136368 183.160095,227.301498 
	C183.165329,227.776611 183.170547,228.251740 183.175766,228.726852 
	C185.513824,228.868729 187.851868,229.010605 190.761932,229.187195 
	C190.844254,230.862991 190.929214,232.592834 191.031204,234.669403 
	C186.700211,234.669403 182.636887,234.669403 178.283859,234.669403 
	C178.283859,227.993408 178.283859,221.394547 178.283859,214.395889 
	C182.235382,214.395889 186.284225,214.395889 190.670059,214.395889 
	C190.670059,216.032700 190.670059,217.748688 190.670059,219.780731 
	C188.132721,219.948685 185.649750,220.113037 183.166794,220.277390 
	C183.159286,220.677216 183.151779,221.077042 183.144287,221.476868 
	C184.307571,221.651169 185.470840,221.825455 187.073746,222.000122 
z"/>
<path fill="#797979" opacity="1.000000" stroke="none" 
	d="
M142.309937,194.008789 
	C141.277954,194.595551 140.691452,195.175644 140.104950,195.755737 
	C140.704117,196.164291 141.301514,196.913986 141.902786,196.917130 
	C143.673187,196.926346 145.445145,196.639572 147.758957,196.416321 
	C147.837875,197.880325 147.929703,199.583954 148.040878,201.646393 
	C145.301132,201.887024 142.759567,202.110260 140.217987,202.333481 
	C140.191101,202.740097 140.164215,203.146713 140.137329,203.553329 
	C142.849609,203.786621 145.561890,204.019913 148.675751,204.287735 
	C148.780930,205.608841 148.891479,206.997482 149.027481,208.705795 
	C144.305099,208.705795 139.912994,208.705795 135.258698,208.705795 
	C135.258698,202.282227 135.258698,196.023560 135.258698,189.380966 
	C139.593750,189.380966 143.974197,189.380966 148.674820,189.380966 
	C148.674820,190.712189 148.674820,192.091995 148.674820,194.002106 
	C146.653061,194.002106 144.704254,194.002106 142.309937,194.008789 
z"/>
<path fill="#797979" opacity="1.000000" stroke="none" 
	d="
M103.798035,229.871063 
	C107.654457,227.037018 103.380226,227.783325 102.715805,227.078384 
	C100.957100,225.212418 97.703011,223.879074 97.239624,221.835846 
	C95.925591,216.041824 100.957405,212.490570 106.421791,214.839142 
	C107.615227,215.352081 108.766617,215.962891 110.362450,216.734055 
	C109.662376,218.281509 109.033134,219.672379 108.350761,221.180695 
	C106.252472,220.516190 104.536430,219.972748 102.820396,219.429291 
	C106.646362,223.281326 114.623772,224.808273 109.431862,232.590012 
	C106.701965,236.681656 101.361778,235.797714 95.581413,230.731232 
	C97.125954,230.285065 98.615974,229.854645 100.106003,229.424225 
	C99.717407,228.967743 99.328812,228.511261 98.940216,228.054764 
	C100.439804,228.649368 101.939392,229.243973 103.798035,229.871063 
z"/>
<path fill="#797979" opacity="1.000000" stroke="none" 
	d="
M40.217850,233.377289 
	C36.924133,233.573776 33.281212,234.578690 31.083063,233.229568 
	C26.770388,230.582703 26.069456,225.770157 27.555283,220.996918 
	C29.759218,213.916733 37.531548,210.448746 43.213177,218.765656 
	C41.945946,219.810471 40.640545,220.886765 40.429066,221.061127 
	C37.459011,220.894119 34.325302,220.253372 34.109753,220.788361 
	C33.292816,222.815994 33.139462,225.262192 33.433758,227.458618 
	C33.492561,227.897507 36.629196,227.826965 38.308662,228.174728 
	C39.806080,228.484802 41.250965,229.048584 42.719028,229.500427 
	C41.986584,230.707489 41.254147,231.914566 40.217850,233.377289 
z"/>
<path fill="#797979" opacity="1.000000" stroke="none" 
	d="
M165.439636,233.923752 
	C160.532898,229.884521 159.965668,225.208481 161.944687,219.866577 
	C164.404587,213.226654 169.377396,212.481750 177.183945,217.969559 
	C175.978470,219.309494 174.805206,220.613617 174.605728,220.835358 
	C171.327148,221.129807 167.889023,220.731720 167.516754,221.619400 
	C166.745041,223.459488 167.218201,226.137344 168.021698,228.131393 
	C168.265137,228.735550 171.275070,228.224945 173.256744,227.028091 
	C174.585999,228.086136 175.915253,229.144180 177.486649,230.394958 
	C173.983505,234.124298 170.664978,236.630127 165.439636,233.923752 
z"/>
<path fill="#797979" opacity="1.000000" stroke="none" 
	d="
M64.997803,214.005554 
	C66.305458,215.034622 67.793373,216.011902 67.881531,217.102371 
	C68.184631,220.851517 67.998016,224.640244 67.998016,228.789017 
	C70.410583,228.928589 72.468689,229.047638 74.749763,229.179596 
	C74.749763,231.042480 74.749763,232.643707 74.749763,234.625198 
	C70.788925,234.625198 66.754814,234.625198 62.047153,234.625198 
	C62.047153,228.370697 61.985363,221.989838 62.155235,215.615143 
	C62.170086,215.057907 63.706661,214.541199 64.997803,214.005554 
z"/>
<path fill="#797979" opacity="1.000000" stroke="none" 
	d="
M88.913025,230.249695 
	C88.975243,231.973099 88.975243,233.250427 88.975243,234.761520 
	C84.617622,234.761520 80.693420,234.761520 76.383583,234.761520 
	C76.383583,228.116898 76.383583,221.427155 76.383583,214.228195 
	C77.949890,214.159607 79.660294,214.084702 81.695992,213.995544 
	C81.695992,219.022690 81.695992,223.729843 81.695992,228.562241 
	C83.869942,228.939438 86.360374,229.371536 88.913025,230.249695 
z"/>
<path fill="#797979" opacity="1.000000" stroke="none" 
	d="
M220.757538,214.001526 
	C222.446304,215.487305 223.666840,216.971924 225.597931,219.320831 
	C222.379745,219.840454 220.972580,220.067673 219.061752,220.376205 
	C219.061752,225.040100 219.061752,229.777222 219.061752,234.725250 
	C217.175598,234.725250 215.797394,234.725250 214.060333,234.725250 
	C214.060333,229.880463 214.060333,225.279388 214.060333,220.383514 
	C212.359482,220.131439 210.961884,219.924332 209.289871,219.676529 
	C209.289871,217.926483 209.289871,216.205582 209.289871,214.000336 
	C213.057632,214.000336 216.673462,214.000336 220.757538,214.001526 
z"/>
<path fill="#797979" opacity="1.000000" stroke="none" 
	d="
M184.070282,200.229279 
	C182.289642,196.494263 180.615814,193.147919 178.706314,189.330414 
	C180.963852,189.330414 182.683746,189.330414 184.425751,189.330414 
	C185.259872,191.126648 186.122711,192.984726 187.589767,196.143936 
	C188.109177,189.743073 191.351227,188.465622 195.563339,188.678101 
	C193.239410,195.022888 190.892548,201.430283 188.248581,208.648834 
	C188.019913,208.648834 186.298080,208.648834 185.172134,208.648834 
	C184.834854,205.926666 184.505966,203.272308 184.070282,200.229279 
z"/>
<path fill="#797979" opacity="1.000000" stroke="none" 
	d="
M176.823853,203.013794 
	C178.039383,204.686417 178.801056,206.348679 179.866592,208.674103 
	C174.707245,208.674103 170.666351,208.674103 166.309967,208.674103 
	C166.309967,202.292343 166.309967,195.938599 166.309967,189.294128 
	C168.094299,189.294128 169.801254,189.294128 171.857590,189.294128 
	C171.857590,193.696777 171.857590,197.949280 171.857590,202.656219 
	C173.565079,202.787598 174.967545,202.895523 176.823853,203.013794 
z"/>
<path fill="#797979" opacity="1.000000" stroke="none" 
	d="
M90.001427,231.736420 
	C90.000320,225.785767 90.000320,220.307236 90.000320,214.419449 
	C91.529999,214.245911 92.915359,214.088745 94.666763,213.890045 
	C94.666763,220.928894 94.666763,227.657333 94.666763,234.788040 
	C92.566742,234.780502 89.936623,236.358658 90.001427,231.736420 
z"/>
<path fill="#797979" opacity="1.000000" stroke="none" 
	d="
M112.392471,234.430054 
	C112.119217,227.593018 112.119217,221.129593 112.119217,214.291153 
	C113.676590,214.206802 115.057846,214.132004 116.728615,214.041504 
	C116.728615,220.961960 116.728615,227.560638 116.728615,234.803696 
	C115.435913,234.803696 114.050827,234.803696 112.392471,234.430054 
z"/>
<path fill="#797979" opacity="1.000000" stroke="none" 
	d="
M80.464050,193.551392 
	C80.972549,194.139893 81.283592,194.885330 81.594643,195.630768 
	C81.066513,195.335251 80.538383,195.039749 79.966743,194.411041 
	C80.037689,193.954666 80.152145,193.831497 80.464050,193.551392 
z"/>
<path fill="#FFFFFF" opacity="1.000000" stroke="none" 
	d="
M207.195801,134.695160 
	C210.176437,138.035416 213.218948,140.896347 215.544296,144.253952 
	C217.626404,147.260315 218.274933,150.302109 213.890854,152.803879 
	C208.521393,155.867981 203.280960,158.541992 196.856583,158.031784 
	C190.786987,157.549789 184.688416,157.427597 178.621704,156.919067 
	C177.378403,156.814880 175.585129,155.996063 175.121078,155.003632 
	C170.785812,145.732300 170.356827,136.436874 175.919556,127.442986 
	C176.576050,126.381577 178.151474,125.005852 179.101059,125.144516 
	C188.913986,126.577454 198.777374,128.021164 207.195801,134.695160 
z"/>
<path fill="#FFFFFF" opacity="1.000000" stroke="none" 
	d="
M166.084274,132.070297 
	C163.663376,140.111984 161.242477,148.153671 158.662888,156.722488 
	C157.041550,156.722488 154.442947,156.722488 151.543030,156.722488 
	C153.762543,147.235641 159.168839,139.434143 165.273178,131.753342 
	C165.830780,131.847092 165.957520,131.958694 166.084274,132.070297 
z"/>
<path fill="#FFFFFF" opacity="1.000000" stroke="none" 
	d="
M165.541443,131.541199 
	C165.834824,131.063538 166.290802,130.780151 166.746780,130.496765 
	C166.701782,130.937698 166.656784,131.378616 166.348022,131.944916 
	C165.957520,131.958694 165.830780,131.847092 165.541443,131.541199 
z"/>
<path fill="#FFFFFF" opacity="1.000000" stroke="none" 
	d="
M54.116562,228.322479 
	C52.350590,228.330322 49.832073,228.411514 49.586658,227.704117 
	C48.999023,226.010300 49.071148,223.797134 49.690205,222.088211 
	C50.040230,221.121964 52.681343,219.903076 53.104149,220.248810 
	C54.371437,221.285065 55.440624,222.942535 55.824837,224.540802 
	C56.063709,225.534485 54.920467,226.860443 54.116562,228.322479 
z"/>
<path fill="#FFFFFF" opacity="1.000000" stroke="none" 
	d="
M130.951447,225.772614 
	C129.470291,227.045135 128.022736,227.916840 126.575195,228.788574 
	C125.728119,226.993118 124.254379,225.194702 124.262833,223.403290 
	C124.268127,222.281662 126.504074,221.170578 127.739151,220.054779 
	C128.821121,221.827133 129.903076,223.599472 130.951447,225.772614 
z"/>
</svg>