<svg version="1.1" id="Layer_1" xmlns="http://www.w3.org/2000/svg" xmlns:xlink="http://www.w3.org/1999/xlink" x="0px" y="0px"
	 width="100%" viewBox="0 0 336 336" enable-background="new 0 0 336 336" xml:space="preserve">
<path fill="#000000" opacity="1.000000" stroke="none" 
	d="
M131.606781,209.866669 
	C110.439499,219.194321 89.637993,211.066574 80.526009,193.982925 
	C67.835487,170.190063 82.251343,140.352722 109.896439,137.615494 
	C132.301987,135.397049 146.094986,149.374786 150.266495,162.342758 
	C156.495743,181.707657 149.262512,200.024368 131.606781,209.866669 
M95.475548,193.946075 
	C94.179779,194.533768 92.884010,195.121475 91.588249,195.709183 
	C96.986015,194.919037 102.180878,193.854340 107.332321,192.609909 
	C116.501053,190.395004 125.759712,188.694595 134.064911,183.583557 
	C144.383743,177.233322 150.355576,153.965790 135.648392,146.993454 
	C135.610367,149.437973 134.768524,151.542206 133.908813,153.649368 
	C126.474869,171.870010 113.602386,184.930176 95.475548,193.946075 
M149.815796,172.173889 
	C150.716293,176.869476 149.290375,181.423813 148.872025,186.040802 
	C150.684967,181.112839 151.071060,176.047806 150.395035,170.898514 
	C150.344360,170.512573 149.833344,170.616394 149.729248,171.107162 
	C149.695435,171.266541 149.722061,171.438751 149.815796,172.173889 
z"/>
<path fill="#000000" opacity="1.000000" stroke="none" 
	d="
M195.995178,164.635895 
	C205.107025,160.709000 213.048828,162.558853 216.369019,169.225571 
	C217.298569,171.091980 218.868195,173.233627 217.487823,175.260284 
	C215.925751,177.553680 213.089874,177.700790 210.656265,177.133224 
	C207.190109,176.324814 203.745667,176.317001 200.261765,176.441528 
	C198.972260,176.487625 197.530334,176.256042 196.753479,177.738220 
	C199.327606,183.199417 204.271454,184.420364 209.803879,180.966827 
	C213.042343,178.945267 213.042343,178.945267 215.812042,179.732986 
	C214.310745,184.125900 209.848785,187.074860 204.766510,187.033112 
	C198.352051,186.980408 192.621918,183.247452 190.622421,177.818756 
	C189.030426,173.496445 190.749374,169.055954 195.995178,164.635895 
M197.012527,170.019287 
	C196.647034,170.600403 196.422363,171.717758 196.936264,171.724670 
	C202.000885,171.792908 207.115570,173.814026 212.383499,171.887085 
	C208.465469,165.394821 203.235245,164.693298 197.012527,170.019287 
z"/>
<path fill="#000000" opacity="1.000000" stroke="none" 
	d="
M163.632339,167.825867 
	C168.607712,162.484802 174.882812,161.104279 181.088211,163.690109 
	C186.182602,165.812943 189.040802,170.313858 188.514847,175.384995 
	C187.918533,181.134354 184.084534,185.052094 178.596039,186.406219 
	C174.127182,187.508789 170.150909,186.349777 166.010590,184.543381 
	C166.010590,187.018707 166.125244,189.117416 165.973434,191.196640 
	C165.857162,192.789124 165.140945,194.177109 163.201675,194.064392 
	C161.227524,193.949661 161.712296,192.441635 161.523544,191.124725 
	C160.691895,185.322678 161.555527,179.552261 161.614410,173.769318 
	C161.635651,171.681870 162.293610,169.854584 163.632339,167.825867 
M167.098343,170.586304 
	C166.815308,171.185074 166.464386,171.761673 166.260223,172.386246 
	C164.912262,176.510056 166.683441,180.020264 171.005463,181.854675 
	C175.760025,183.872650 181.032227,182.206741 183.033356,178.054077 
	C184.834900,174.315567 183.409592,169.960098 179.602570,167.820969 
	C174.999161,165.234390 171.016312,166.411255 167.098343,170.586304 
z"/>
<path fill="#000000" opacity="1.000000" stroke="none" 
	d="
M247.277405,173.278595 
	C246.690979,184.988724 238.842224,189.039719 225.136658,184.897781 
	C223.663239,186.913193 224.642151,189.328369 224.283447,191.504929 
	C224.086853,192.697906 223.958084,193.910797 222.401215,193.975006 
	C220.746887,194.043243 219.919601,193.035797 219.901886,191.513535 
	C219.832321,185.534393 219.086899,179.502045 220.180389,173.590164 
	C221.481613,166.555267 225.578018,162.981003 231.857376,162.673737 
	C240.552689,162.248230 244.509247,164.867554 247.277405,173.278595 
M229.876526,167.256912 
	C226.077911,169.100632 223.611588,171.843719 224.638046,176.332428 
	C225.634338,180.689148 230.372925,183.353180 235.220963,182.608047 
	C239.588211,181.936813 242.823853,178.442642 242.654236,174.580917 
	C242.472183,170.436096 238.632568,166.766846 233.971207,166.451431 
	C232.852203,166.375702 231.700729,166.779526 229.876526,167.256912 
z"/>
<path fill="#000000" opacity="1.000000" stroke="none" 
	d="
M262.075684,166.978119 
	C260.397400,166.726807 259.084076,166.445602 257.780792,166.486191 
	C256.367401,166.530197 255.149170,167.258438 254.873001,168.741760 
	C254.615143,170.126602 255.768982,170.842911 256.801910,171.335236 
	C258.284515,172.041870 259.901550,172.463211 261.396790,173.147141 
	C264.687653,174.652435 266.843933,176.952744 266.271301,180.894836 
	C265.755920,184.442871 263.186371,185.634857 260.084412,186.401337 
	C257.074341,187.145126 254.170441,186.754318 251.275909,186.040680 
	C250.159332,185.765396 248.963577,185.156845 249.258591,183.664856 
	C249.578110,182.048874 250.735352,181.618423 252.272461,181.958557 
	C253.560394,182.243546 254.851822,182.634628 256.155426,182.698486 
	C258.132233,182.795288 260.530457,183.005554 261.203918,180.596115 
	C261.917023,178.044846 259.548248,177.322876 257.796356,176.464554 
	C256.460358,175.809952 255.026123,175.356583 253.686050,174.709244 
	C251.295837,173.554565 249.590332,171.883301 249.737473,168.957672 
	C249.893341,165.858124 251.881393,164.125809 254.485306,163.185562 
	C257.180695,162.212326 260.064331,162.478546 262.848206,162.950272 
	C263.931335,163.133789 265.228363,163.639786 265.197296,165.104675 
	C265.160431,166.845612 263.979492,167.279572 262.075684,166.978119 
z"/>
<path fill="#000000" opacity="1.000000" stroke="none" 
	d="
M274.997498,172.110138 
	C274.956299,176.003433 273.788666,179.406555 274.738708,182.933884 
	C275.151550,184.466614 274.797455,186.004517 272.705688,186.159531 
	C271.047699,186.282425 270.113159,185.273712 270.081604,183.803680 
	C269.949768,177.660217 269.916382,171.513458 269.954559,165.368576 
	C269.962189,164.140656 270.736298,163.132385 272.130676,163.068359 
	C273.988800,162.983032 274.161652,164.359467 274.302094,165.745590 
	C274.502563,167.724380 274.740936,169.699310 274.997498,172.110138 
z"/>
<path fill="#000000" opacity="1.000000" stroke="none" 
	d="
M274.978516,158.161102 
	C274.535797,161.172485 272.996521,161.916229 270.790710,160.575180 
	C269.503479,159.792587 269.317078,158.171249 270.236359,157.066360 
	C271.979614,154.971130 273.633423,155.563797 274.978516,158.161102 
z"/>
</svg>