<svg version="1.1" id="Layer_1" xmlns="http://www.w3.org/2000/svg" xmlns:xlink="http://www.w3.org/1999/xlink" x="0px" y="0px"
	 width="100%" viewBox="0 0 400 400" enable-background="new 0 0 400 400" xml:space="preserve">
<path fill="#000000" opacity="1.000000" stroke="none" 
	d="
M258.000000,401.000000 
	C172.000000,401.000000 86.500000,401.000000 1.000000,401.000000 
	C1.000000,267.666656 1.000000,134.333328 1.000000,1.000000 
	C134.333328,1.000000 267.666656,1.000000 401.000000,1.000000 
	C401.000000,134.333328 401.000000,267.666656 401.000000,401.000000 
	C353.500000,401.000000 306.000000,401.000000 258.000000,401.000000 
M148.000000,215.487442 
	C147.594955,223.803314 147.962387,231.952652 152.753418,239.241684 
	C161.314270,252.266174 173.788834,256.872711 188.607712,254.782318 
	C196.446899,253.676498 203.886948,250.087631 208.726486,243.455963 
	C222.511215,224.566589 223.096481,203.224075 209.496445,184.219467 
	C199.580368,170.362839 188.327209,157.463089 177.903442,144.428497 
	C178.968491,154.890213 184.063904,164.255859 190.527145,173.004761 
	C200.181168,186.072784 207.161591,200.022003 206.029007,216.915619 
	C205.500198,224.803375 202.555664,231.929382 197.043015,237.103699 
	C190.271927,243.459198 181.606079,245.289780 172.919693,240.875626 
	C164.556961,236.625946 159.898300,229.640228 159.974518,219.861267 
	C160.077072,206.701981 159.999496,193.541306 159.999252,180.381226 
	C159.999222,178.641235 159.999252,176.901245 159.999252,175.305237 
	C155.569229,175.305237 151.969376,175.305237 148.000000,175.305237 
	C148.000000,188.568649 148.000000,201.530258 148.000000,215.487442 
M239.999268,196.261612 
	C240.520782,184.031296 237.323929,172.722305 230.286667,162.850555 
	C221.366760,150.337845 211.730972,138.337936 202.553909,126.005264 
	C194.998474,115.851799 188.680222,105.245712 191.964996,91.675125 
	C192.789810,88.267540 193.258850,84.773842 193.891388,81.319717 
	C193.491333,81.068199 193.091278,80.816673 192.691223,80.565155 
	C190.302551,83.694763 187.598816,86.634491 185.578812,89.986275 
	C175.948227,105.966064 179.150513,121.770721 188.182114,136.349289 
	C196.153549,149.216522 205.830276,161.029236 214.785721,173.284424 
	C224.569214,186.672760 229.800858,201.117142 224.966324,217.802368 
	C223.796814,221.838654 222.125931,225.729660 220.408035,230.450180 
	C232.851608,222.115494 238.217697,210.691467 239.999268,196.261612 
M116.877968,178.379898 
	C113.082901,177.586578 109.306496,176.236893 105.489113,176.108826 
	C95.745209,175.781967 85.983032,175.999939 75.999992,175.999939 
	C75.999992,200.999557 76.077789,225.305222 75.923172,249.609436 
	C75.897499,253.645554 76.895073,255.222153 81.219910,255.137054 
	C85.284721,255.057083 87.317154,254.404282 87.101318,249.670486 
	C86.732544,241.582138 86.999596,233.464798 86.999596,225.000000 
	C91.358124,225.000000 95.160660,225.092316 98.956802,224.975876 
	C103.391808,224.839844 108.001480,225.225525 112.218025,224.145706 
	C123.263680,221.317001 128.755524,212.970352 129.782410,202.347916 
	C130.747314,192.366776 126.190720,184.281723 116.877968,178.379898 
M263.000122,201.463806 
	C263.000122,196.707825 263.000122,191.951843 263.000122,186.003113 
	C276.636597,186.003113 289.554413,185.807358 302.460693,186.107361 
	C307.090332,186.214996 308.098114,184.224823 308.046783,180.262726 
	C307.992676,176.082825 305.899445,174.919601 302.043762,174.950714 
	C287.046936,175.071747 272.046936,175.119522 257.051788,174.920242 
	C253.076782,174.867416 251.892838,176.115921 251.920532,180.074310 
	C252.082489,203.236465 252.075119,226.400818 251.927704,249.563171 
	C251.902451,253.530304 252.772736,255.262131 257.177887,255.136093 
	C261.184448,255.021469 263.304291,254.490311 263.104218,249.702011 
	C262.738220,240.941391 263.000031,232.154526 263.000031,222.999390 
	C273.508972,222.999390 283.473053,222.912537 293.434357,223.041656 
	C297.482025,223.094131 298.910431,221.402573 299.102478,217.403595 
	C299.340637,212.443634 296.921783,210.979813 292.592834,210.992050 
	C282.827179,211.019638 273.061371,211.000717 263.000122,211.000717 
	C263.000122,207.731384 263.000122,205.090195 263.000122,201.463806 
M377.441772,174.999985 
	C364.109833,175.000153 350.777344,175.065292 337.446350,174.952209 
	C334.328552,174.925766 332.933929,175.775040 332.948151,179.168671 
	C333.047882,202.999023 333.055450,226.830276 332.934387,250.660446 
	C332.918610,253.763535 334.346497,254.686371 336.949158,255.005692 
	C343.095093,255.759750 343.994080,255.009430 343.998444,248.943024 
	C344.004669,240.355606 344.000031,231.768204 344.000031,222.999695 
	C354.057587,222.999695 363.378937,223.002457 372.700287,222.998764 
	C379.198547,222.996185 379.969879,222.371552 379.999298,217.126419 
	C380.030823,211.497635 379.424561,211.004257 372.459167,211.000595 
	C368.959534,210.998764 365.459930,211.000290 361.960297,211.000290 
	C356.035706,211.000290 350.111115,211.000290 344.237732,211.000290 
	C344.237732,202.334396 344.237732,194.396591 344.237732,185.950043 
	C358.866302,185.950043 373.266541,185.950043 387.601990,185.950043 
	C388.733185,175.000031 388.733185,175.000031 377.441772,174.999985 
M33.999390,243.477493 
	C33.999390,247.240097 33.999390,251.002701 33.999390,254.999496 
	C35.861446,254.999496 37.013420,254.992798 38.165291,255.000610 
	C44.997070,255.046967 44.999149,255.048065 44.999794,248.225952 
	C45.001144,233.898315 45.062222,219.570312 44.978714,205.243164 
	C44.920525,195.258789 46.783371,195.949829 35.636574,196.047119 
	C35.191036,196.051010 34.747852,196.324020 34.373802,196.448303 
	C34.237427,196.894257 34.062889,197.199524 34.062271,197.505157 
	C34.031895,212.498505 34.016468,227.491882 33.999390,243.477493 
M201.473389,110.014168 
	C202.182480,109.310059 202.906784,108.620529 203.598389,107.899658 
	C214.076294,96.978256 215.402039,79.360817 204.632324,67.837341 
	C198.670135,61.457848 189.912689,55.468739 194.115707,43.787384 
	C192.014755,46.886215 190.548172,49.979404 190.089401,53.215473 
	C188.840118,62.027763 194.587067,68.323135 198.720200,75.107414 
	C204.480469,84.562508 205.993225,94.231888 200.836365,104.406120 
	C199.427216,107.186302 197.833984,109.873192 195.708786,113.718201 
	C198.235611,112.176682 199.598984,111.344948 201.473389,110.014168 
M42.800690,186.671982 
	C46.192860,184.029724 46.158722,179.392212 44.252674,177.496750 
	C42.288639,175.543640 37.798588,176.130676 34.000721,175.542313 
	C34.000721,178.568924 34.151424,180.542435 33.967663,182.484268 
	C33.639503,185.951920 35.067471,187.406693 38.518753,187.018723 
	C39.661243,186.890274 40.826954,186.968338 42.800690,186.671982 
z"/>
<path fill="#8A8C8F" opacity="1.000000" stroke="none" 
	d="
M148.000000,214.989655 
	C148.000000,201.530258 148.000000,188.568649 148.000000,175.305237 
	C151.969376,175.305237 155.569229,175.305237 159.999252,175.305237 
	C159.999252,176.901245 159.999222,178.641235 159.999252,180.381226 
	C159.999496,193.541306 160.077072,206.701981 159.974518,219.861267 
	C159.898300,229.640228 164.556961,236.625946 172.919693,240.875626 
	C181.606079,245.289780 190.271927,243.459198 197.043015,237.103699 
	C202.555664,231.929382 205.500198,224.803375 206.029007,216.915619 
	C207.161591,200.022003 200.181168,186.072784 190.527145,173.004761 
	C184.063904,164.255859 178.968491,154.890213 177.903442,144.428497 
	C188.327209,157.463089 199.580368,170.362839 209.496445,184.219467 
	C223.096481,203.224075 222.511215,224.566589 208.726486,243.455963 
	C203.886948,250.087631 196.446899,253.676498 188.607712,254.782318 
	C173.788834,256.872711 161.314270,252.266174 152.753418,239.241684 
	C147.962387,231.952652 147.594955,223.803314 148.000000,214.989655 
z"/>
<path fill="#8A8C8F" opacity="1.000000" stroke="none" 
	d="
M239.998383,196.723602 
	C238.217697,210.691467 232.851608,222.115494 220.408035,230.450180 
	C222.125931,225.729660 223.796814,221.838654 224.966324,217.802368 
	C229.800858,201.117142 224.569214,186.672760 214.785721,173.284424 
	C205.830276,161.029236 196.153549,149.216522 188.182114,136.349289 
	C179.150513,121.770721 175.948227,105.966064 185.578812,89.986275 
	C187.598816,86.634491 190.302551,83.694763 192.691223,80.565155 
	C193.091278,80.816673 193.491333,81.068199 193.891388,81.319717 
	C193.258850,84.773842 192.789810,88.267540 191.964996,91.675125 
	C188.680222,105.245712 194.998474,115.851799 202.553909,126.005264 
	C211.730972,138.337936 221.366760,150.337845 230.286667,162.850555 
	C237.323929,172.722305 240.520782,184.031296 239.998383,196.723602 
z"/>
<path fill="#9D9FA2" opacity="1.000000" stroke="none" 
	d="
M117.167191,178.633484 
	C126.190720,184.281723 130.747314,192.366776 129.782410,202.347916 
	C128.755524,212.970352 123.263680,221.317001 112.218025,224.145706 
	C108.001480,225.225525 103.391808,224.839844 98.956802,224.975876 
	C95.160660,225.092316 91.358124,225.000000 86.999596,225.000000 
	C86.999596,233.464798 86.732544,241.582138 87.101318,249.670486 
	C87.317154,254.404282 85.284721,255.057083 81.219910,255.137054 
	C76.895073,255.222153 75.897499,253.645554 75.923172,249.609436 
	C76.077789,225.305222 75.999992,200.999557 75.999992,175.999939 
	C85.983032,175.999939 95.745209,175.781967 105.489113,176.108826 
	C109.306496,176.236893 113.082901,177.586578 117.167191,178.633484 
M87.000130,199.508270 
	C87.000130,204.264191 87.000130,209.020111 87.000130,213.999420 
	C93.678505,213.999420 99.660339,214.065872 105.640045,213.981323 
	C112.010834,213.891251 118.021088,207.712692 118.523155,200.891449 
	C118.928391,195.385757 113.166306,187.556534 107.606613,187.144104 
	C100.876350,186.644836 94.080795,187.025726 87.000092,187.025726 
	C87.000092,191.242844 87.000092,194.879898 87.000130,199.508270 
z"/>
<path fill="#9D9FA2" opacity="1.000000" stroke="none" 
	d="
M263.000122,201.956390 
	C263.000122,205.090195 263.000122,207.731384 263.000122,211.000717 
	C273.061371,211.000717 282.827179,211.019638 292.592834,210.992050 
	C296.921783,210.979813 299.340637,212.443634 299.102478,217.403595 
	C298.910431,221.402573 297.482025,223.094131 293.434357,223.041656 
	C283.473053,222.912537 273.508972,222.999390 263.000031,222.999390 
	C263.000031,232.154526 262.738220,240.941391 263.104218,249.702011 
	C263.304291,254.490311 261.184448,255.021469 257.177887,255.136093 
	C252.772736,255.262131 251.902451,253.530304 251.927704,249.563171 
	C252.075119,226.400818 252.082489,203.236465 251.920532,180.074310 
	C251.892838,176.115921 253.076782,174.867416 257.051788,174.920242 
	C272.046936,175.119522 287.046936,175.071747 302.043762,174.950714 
	C305.899445,174.919601 307.992676,176.082825 308.046783,180.262726 
	C308.098114,184.224823 307.090332,186.214996 302.460693,186.107361 
	C289.554413,185.807358 276.636597,186.003113 263.000122,186.003113 
	C263.000122,191.951843 263.000122,196.707825 263.000122,201.956390 
z"/>
<path fill="#9D9FA2" opacity="1.000000" stroke="none" 
	d="
M377.931702,174.999985 
	C388.733185,175.000031 388.733185,175.000031 387.601990,185.950043 
	C373.266541,185.950043 358.866302,185.950043 344.237732,185.950043 
	C344.237732,194.396591 344.237732,202.334396 344.237732,211.000290 
	C350.111115,211.000290 356.035706,211.000290 361.960297,211.000290 
	C365.459930,211.000290 368.959534,210.998764 372.459167,211.000595 
	C379.424561,211.004257 380.030823,211.497635 379.999298,217.126419 
	C379.969879,222.371552 379.198547,222.996185 372.700287,222.998764 
	C363.378937,223.002457 354.057587,222.999695 344.000031,222.999695 
	C344.000031,231.768204 344.004669,240.355606 343.998444,248.943024 
	C343.994080,255.009430 343.095093,255.759750 336.949158,255.005692 
	C334.346497,254.686371 332.918610,253.763535 332.934387,250.660446 
	C333.055450,226.830276 333.047882,202.999023 332.948151,179.168671 
	C332.933929,175.775040 334.328552,174.925766 337.446350,174.952209 
	C350.777344,175.065292 364.109833,175.000153 377.931702,174.999985 
z"/>
<path fill="#9D9FA2" opacity="1.000000" stroke="none" 
	d="
M33.999390,242.981384 
	C34.016468,227.491882 34.031895,212.498505 34.062271,197.505157 
	C34.062889,197.199524 34.237427,196.894257 34.373802,196.448303 
	C34.747852,196.324020 35.191036,196.051010 35.636574,196.047119 
	C46.783371,195.949829 44.920525,195.258789 44.978714,205.243164 
	C45.062222,219.570312 45.001144,233.898315 44.999794,248.225952 
	C44.999149,255.048065 44.997070,255.046967 38.165291,255.000610 
	C37.013420,254.992798 35.861446,254.999496 33.999390,254.999496 
	C33.999390,251.002701 33.999390,247.240097 33.999390,242.981384 
z"/>
<path fill="#8A8C8F" opacity="1.000000" stroke="none" 
	d="
M201.217865,110.263687 
	C199.598984,111.344948 198.235611,112.176682 195.708786,113.718201 
	C197.833984,109.873192 199.427216,107.186302 200.836365,104.406120 
	C205.993225,94.231888 204.480469,84.562508 198.720200,75.107414 
	C194.587067,68.323135 188.840118,62.027763 190.089401,53.215473 
	C190.548172,49.979404 192.014755,46.886215 194.115707,43.787384 
	C189.912689,55.468739 198.670135,61.457848 204.632324,67.837341 
	C215.402039,79.360817 214.076294,96.978256 203.598389,107.899658 
	C202.906784,108.620529 202.182480,109.310059 201.217865,110.263687 
z"/>
<path fill="#9D9FA2" opacity="1.000000" stroke="none" 
	d="
M42.391369,186.811981 
	C40.826954,186.968338 39.661243,186.890274 38.518753,187.018723 
	C35.067471,187.406693 33.639503,185.951920 33.967663,182.484268 
	C34.151424,180.542435 34.000721,178.568924 34.000721,175.542313 
	C37.798588,176.130676 42.288639,175.543640 44.252674,177.496750 
	C46.158722,179.392212 46.192860,184.029724 42.391369,186.811981 
z"/>
<path fill="#000000" opacity="1.000000" stroke="none" 
	d="
M87.000107,199.012604 
	C87.000092,194.879898 87.000092,191.242844 87.000092,187.025726 
	C94.080795,187.025726 100.876350,186.644836 107.606613,187.144104 
	C113.166306,187.556534 118.928391,195.385757 118.523155,200.891449 
	C118.021088,207.712692 112.010834,213.891251 105.640045,213.981323 
	C99.660339,214.065872 93.678505,213.999420 87.000130,213.999420 
	C87.000130,209.020111 87.000130,204.264191 87.000107,199.012604 
z"/>
</svg>